<?xml version="1.0" encoding="UTF-8" standalone="no"?>
<svg
   id="Layer_1"
   version="1.1"
   viewBox="0 0 380 380"
   sodipodi:docname="gitlab-logo.svg"
   inkscape:version="1.4 (e7c3feb100, 2024-10-09)"
   xmlns:inkscape="http://www.inkscape.org/namespaces/inkscape"
   xmlns:sodipodi="http://sodipodi.sourceforge.net/DTD/sodipodi-0.dtd"
   xmlns="http://www.w3.org/2000/svg"
   xmlns:svg="http://www.w3.org/2000/svg">
  <sodipodi:namedview
     id="namedview4"
     pagecolor="#ffffff"
     bordercolor="#999999"
     borderopacity="1"
     inkscape:showpageshadow="2"
     inkscape:pageopacity="0"
     inkscape:pagecheckerboard="0"
     inkscape:deskcolor="#d1d1d1"
     inkscape:zoom="1.914293"
     inkscape:cx="167.42473"
     inkscape:cy="192.76046"
     inkscape:window-width="1920"
     inkscape:window-height="1043"
     inkscape:window-x="0"
     inkscape:window-y="37"
     inkscape:window-maximized="1"
     inkscape:current-layer="Layer_1" />
  <!-- Generator: Adobe Illustrator 29.0.0, SVG Export Plug-In . SVG Version: 2.1.0 Build 186)  -->
  <defs
     id="defs1">
    <style
       id="style1">
      .st0 {
        fill: #fca326;
      }

      .st1 {
        fill: #fc6d26;
      }

      .st2 {
        fill: #e24329;
      }
    </style>
  </defs>
  <g
     id="LOGO"
     transform="matrix(2.3920809,0,0,2.3920809,-264.43912,-264.46057)">
    <g
       id="g4">
      <path
         class="st2"
         d="m 265.3,174.4 -0.2,-0.6 -21.2,-55.3 c -0.4,-1.1 -1.2,-2 -2.2,-2.6 -1,-0.6 -2.1,-0.9 -3.3,-0.9 -1.2,0 -2.3,0.5 -3.2,1.2 -0.9,0.7 -1.6,1.7 -1.9,2.9 L 219,162.9 h -57.9 l -14.3,-43.8 c -0.3,-1.1 -1,-2.1 -1.9,-2.9 -0.9,-0.7 -2,-1.2 -3.2,-1.2 -1.2,0 -2.3,0.2 -3.3,0.9 -1,0.6 -1.8,1.5 -2.2,2.6 l -21.2,55.3 -0.2,0.6 c -6.3,16.4 -0.9,34.9 13.1,45.5 h 0.2 c 0,0.1 32.3,24.3 32.3,24.3 l 16,12.1 9.7,7.3 c 2.3,1.8 5.6,1.8 7.9,0 l 9.7,-7.3 16,-12.1 32.5,-24.3 v 0 c 14,-10.6 19.3,-29.1 13,-45.5 z"
         id="path1" />
      <path
         class="st1"
         d="m 265.3,174.4 -0.2,-0.6 c -10.5,2.2 -20.2,6.6 -28.5,12.8 -0.1,0 -25.2,19.1 -46.6,35.2 15.8,12 29.6,22.4 29.6,22.4 l 32.5,-24.3 v 0 c 14,-10.6 19.3,-29.1 13,-45.5 z"
         id="path2" />
      <path
         class="st0"
         d="m 160.3,244.2 16,12.1 9.7,7.3 c 2.3,1.8 5.6,1.8 7.9,0 l 9.7,-7.3 16,-12.1 c 0,0 -13.8,-10.4 -29.6,-22.4 -15.9,12 -29.7,22.4 -29.7,22.4 z"
         id="path3" />
      <path
         class="st1"
         d="m 143.4,186.6 c -8.3,-6.2 -18,-10.7 -28.5,-12.8 l -0.2,0.6 c -6.3,16.4 -0.9,34.9 13.1,45.5 h 0.2 c 0,0.1 32.3,24.3 32.3,24.3 0,0 13.8,-10.4 29.7,-22.4 -21.3,-16.1 -46.4,-35.1 -46.6,-35.2 z"
         id="path4" />
    </g>
  </g>
</svg>
