<?xml version="1.0" encoding="UTF-8" standalone="no"?>
<!-- Created with Inkscape (http://www.inkscape.org/) -->

<svg
   xmlns:dc="http://purl.org/dc/elements/1.1/"
   xmlns:cc="http://creativecommons.org/ns#"
   xmlns:rdf="http://www.w3.org/1999/02/22-rdf-syntax-ns#"
   xmlns:svg="http://www.w3.org/2000/svg"
   xmlns="http://www.w3.org/2000/svg"
   xmlns:sodipodi="http://sodipodi.sourceforge.net/DTD/sodipodi-0.dtd"
   xmlns:inkscape="http://www.inkscape.org/namespaces/inkscape"
   width="319.06744"
   height="75.165779"
   viewBox="0 0 84.419924 19.887613"
   version="1.1"
   id="svg8"
   inkscape:version="0.92.1 r15371"
   sodipodi:docname="consensus-logo-v1.3.svg"
   inkscape:export-filename="/home/ergonlogic/Downloads/consensus-logo-v1.1.png"
   inkscape:export-xdpi="45.748962"
   inkscape:export-ydpi="45.748962">
  <defs
     id="defs2" />
  <sodipodi:namedview
     id="base"
     pagecolor="#ffffff"
     bordercolor="#666666"
     borderopacity="1.0"
     inkscape:pageopacity="0.0"
     inkscape:pageshadow="2"
     inkscape:zoom="2"
     inkscape:cx="117.11385"
     inkscape:cy="20.64471"
     inkscape:document-units="mm"
     inkscape:current-layer="layer1"
     showgrid="false"
     showguides="false"
     inkscape:window-width="956"
     inkscape:window-height="1028"
     inkscape:window-x="960"
     inkscape:window-y="24"
     inkscape:window-maximized="0"
     inkscape:snap-global="false"
     units="px"
     inkscape:pagecheckerboard="true" />
  <metadata
     id="metadata5">
    <rdf:RDF>
      <cc:Work
         rdf:about="">
        <dc:format>image/svg+xml</dc:format>
        <dc:type
           rdf:resource="http://purl.org/dc/dcmitype/StillImage" />
        <dc:title></dc:title>
      </cc:Work>
    </rdf:RDF>
  </metadata>
  <g
     inkscape:label="Layer 1"
     inkscape:groupmode="layer"
     id="layer1"
     transform="translate(-11.713035,-22.845995)">
    <text
       xml:space="preserve"
       style="font-style:normal;font-weight:normal;font-size:4.37008238px;line-height:125%;font-family:Sans;letter-spacing:0px;word-spacing:0px;fill:#000000;fill-opacity:1;stroke:none;stroke-width:0.10925205px;stroke-linecap:butt;stroke-linejoin:miter;stroke-opacity:1"
       x="21.589468"
       y="106.01545"
       id="text20"
       transform="scale(1.1566494,0.86456622)"><tspan
         sodipodi:role="line"
         id="tspan18"
         x="21.589468"
         y="109.88195"
         style="font-style:normal;font-variant:normal;font-weight:normal;font-stretch:normal;font-size:9.61418152px;font-family:'Liberation Sans';-inkscape-font-specification:'Liberation Sans';stroke-width:0.10925205px" /></text>
    <flowRoot
       xml:space="preserve"
       id="flowRoot4773"
       style="font-style:normal;font-weight:normal;font-size:40px;line-height:125%;font-family:Sans;letter-spacing:0px;word-spacing:0px;fill:#000000;fill-opacity:1;stroke:none;stroke-width:1px;stroke-linecap:butt;stroke-linejoin:miter;stroke-opacity:1"
       transform="matrix(0.47760502,0,0,0.47760502,6.2129551,18.389093)"><flowRegion
         id="flowRegion4775"><rect
           id="rect4777"
           width="212.5"
           height="55"
           x="232.5"
           y="281.01968" /></flowRegion><flowPara
         id="flowPara4779" /></flowRoot>    <text
       xml:space="preserve"
       style="font-style:normal;font-variant:normal;font-weight:normal;font-stretch:normal;font-size:5.05465317px;line-height:125%;font-family:'URW Gothic L';-inkscape-font-specification:'URW Gothic L';letter-spacing:0px;word-spacing:0px;fill:#000000;fill-opacity:1;stroke:none;stroke-width:0.12636632px;stroke-linecap:butt;stroke-linejoin:miter;stroke-opacity:1"
       x="29.843456"
       y="31.470499"
       id="text4830"><tspan
         sodipodi:role="line"
         id="tspan4828"
         x="29.843456"
         y="36.165874"
         style="font-style:normal;font-variant:normal;font-weight:normal;font-stretch:normal;font-family:'URW Gothic L';-inkscape-font-specification:'URW Gothic L';stroke-width:0.12636632px" /></text>
    <text
       xml:space="preserve"
       style="font-style:normal;font-weight:normal;font-size:5.05465317px;line-height:125%;font-family:Sans;letter-spacing:0px;word-spacing:0px;fill:#000000;fill-opacity:1;stroke:none;stroke-width:0.12636632px;stroke-linecap:butt;stroke-linejoin:miter;stroke-opacity:1"
       x="38.436367"
       y="33.365993"
       id="text4834"><tspan
         sodipodi:role="line"
         id="tspan4832"
         x="38.436367"
         y="37.838177"
         style="stroke-width:0.12636632px" /></text>
    <flowRoot
       xml:space="preserve"
       id="flowRoot5037"
       style="font-style:normal;font-variant:normal;font-weight:normal;font-stretch:normal;font-size:40px;line-height:125%;font-family:'Liberation Sans';-inkscape-font-specification:'Liberation Sans';letter-spacing:0px;word-spacing:0px;fill:#000000;fill-opacity:1;stroke:none;stroke-width:1px;stroke-linecap:butt;stroke-linejoin:miter;stroke-opacity:1"
       transform="matrix(0.47760502,0,0,0.47760502,6.2129551,18.389093)"><flowRegion
         id="flowRegion5039"><rect
           id="rect5041"
           width="4"
           height="61"
           x="550"
           y="141.51968" /></flowRegion><flowPara
         id="flowPara5043" /></flowRoot>    <text
       xml:space="preserve"
       style="font-style:normal;font-variant:normal;font-weight:normal;font-stretch:normal;font-size:5.05465317px;line-height:125%;font-family:'Publica Sans';-inkscape-font-specification:'Publica Sans';letter-spacing:0px;word-spacing:0px;fill:#000000;fill-opacity:1;stroke:none;stroke-width:0.12636632px;stroke-linecap:butt;stroke-linejoin:miter;stroke-opacity:1"
       x="32.840591"
       y="41.84309"
       id="text64"><tspan
         sodipodi:role="line"
         id="tspan62"
         x="32.840591"
         y="46.518642"
         style="stroke-width:0.12636632px" /></text>
    <g
       aria-label="ENTERPRISES"
       transform="matrix(0.45553625,0,0,0.50074293,6.2129551,18.389093)"
       style="font-style:normal;font-variant:normal;font-weight:normal;font-stretch:normal;font-size:18.16975784px;line-height:125%;font-family:'Typo Grotesk Black';-inkscape-font-specification:'Typo Grotesk Black, ';letter-spacing:2.09285426px;word-spacing:0px;fill:#6d6e72;fill-opacity:1;stroke:none;stroke-width:0.25235766px;stroke-linecap:butt;stroke-linejoin:miter;stroke-opacity:1"
       id="text4516-0">
      <path
         d="m 61.040108,34.22761 h 8.26866 v 1.916341 h -6.059544 v 3.229391 h 5.234452 v 1.898598 h -5.234452 v 3.114055 h 6.139391 v 1.90747 h -8.348507 z"
         style="font-style:normal;font-variant:normal;font-weight:bold;font-stretch:normal;font-size:18.16975784px;font-family:'Codec Cold Trial';-inkscape-font-specification:'Codec Cold Trial Bold';letter-spacing:2.09285426px;fill:#6d6e72;fill-opacity:1;stroke-width:0.25235766px"
         id="path4590"
         inkscape:connector-curvature="0" />
      <path
         d="m 84.274825,46.293465 h -1.898598 l -6.565244,-8.242044 v 8.242044 H 73.601866 V 34.22761 h 1.898598 l 6.574117,8.242043 V 34.22761 h 2.200244 z"
         style="font-style:normal;font-variant:normal;font-weight:bold;font-stretch:normal;font-size:18.16975784px;font-family:'Codec Cold Trial';-inkscape-font-specification:'Codec Cold Trial Bold';letter-spacing:2.09285426px;fill:#6d6e72;fill-opacity:1;stroke-width:0.25235766px"
         id="path4592"
         inkscape:connector-curvature="0" />
      <path
         d="m 91.832801,36.13508 h -3.584269 v -1.90747 h 9.386525 v 1.90747 h -3.59314 v 10.158385 h -2.209116 z"
         style="font-style:normal;font-variant:normal;font-weight:bold;font-stretch:normal;font-size:18.16975784px;font-family:'Codec Cold Trial';-inkscape-font-specification:'Codec Cold Trial Bold';letter-spacing:2.09285426px;fill:#6d6e72;fill-opacity:1;stroke-width:0.25235766px"
         id="path4594"
         inkscape:connector-curvature="0" />
      <path
         d="m 101.59989,34.22761 h 8.26866 v 1.916341 h -6.05954 v 3.229391 h 5.23445 v 1.898598 h -5.23445 v 3.114055 h 6.13939 v 1.90747 h -8.34851 z"
         style="font-style:normal;font-variant:normal;font-weight:bold;font-stretch:normal;font-size:18.16975784px;font-family:'Codec Cold Trial';-inkscape-font-specification:'Codec Cold Trial Bold';letter-spacing:2.09285426px;fill:#6d6e72;fill-opacity:1;stroke-width:0.25235766px"
         id="path4596"
         inkscape:connector-curvature="0" />
      <path
         d="m 118.92589,42.097031 h -2.55512 v 4.196434 h -2.20912 V 34.22761 h 5.20784 q 0.91381,0 1.6768,0.283902 0.77186,0.283903 1.33079,0.807348 0.55893,0.514573 0.86945,1.242073 0.31052,0.7275 0.31052,1.605824 0,0.656524 -0.16857,1.233201 -0.16856,0.567805 -0.48795,1.029146 -0.31052,0.461342 -0.76299,0.807348 -0.4436,0.346006 -0.99366,0.558933 l 2.6882,4.49808 h -2.53738 z m 0.37262,-1.907469 q 0.43473,0 0.80735,-0.141952 0.37262,-0.150823 0.64765,-0.408109 0.27503,-0.266159 0.43473,-0.638781 0.15969,-0.372622 0.15969,-0.825091 0,-0.45247 -0.15969,-0.825092 -0.1597,-0.372622 -0.43473,-0.638781 -0.27503,-0.27503 -0.65652,-0.425853 -0.3815,-0.150823 -0.81622,-0.150823 h -2.91 v 4.054482 z"
         style="font-style:normal;font-variant:normal;font-weight:bold;font-stretch:normal;font-size:18.16975784px;font-family:'Codec Cold Trial';-inkscape-font-specification:'Codec Cold Trial Bold';letter-spacing:2.09285426px;fill:#6d6e72;fill-opacity:1;stroke-width:0.25235766px"
         id="path4598"
         inkscape:connector-curvature="0" />
      <path
         d="m 129.96167,42.354318 v 3.939147 h -2.20911 V 34.22761 h 5.08363 q 0.91381,0 1.67679,0.310518 0.77186,0.301647 1.3308,0.842836 0.55893,0.541189 0.86945,1.295305 0.31052,0.745244 0.31052,1.623567 0,0.896067 -0.31052,1.641311 -0.30165,0.736372 -0.86058,1.277561 -0.55006,0.541189 -1.31305,0.842836 -0.76299,0.292774 -1.66793,0.292774 z m 2.79467,-1.90747 q 0.43472,0 0.80735,-0.159695 0.38149,-0.168567 0.65652,-0.452469 0.27503,-0.292775 0.43473,-0.683141 0.15969,-0.390366 0.15969,-0.842835 0,-0.45247 -0.15969,-0.842836 -0.1597,-0.399237 -0.4436,-0.692012 -0.27503,-0.292774 -0.65653,-0.461341 -0.37262,-0.177439 -0.80734,-0.177439 h -2.7858 v 4.311768 z"
         style="font-style:normal;font-variant:normal;font-weight:bold;font-stretch:normal;font-size:18.16975784px;font-family:'Codec Cold Trial';-inkscape-font-specification:'Codec Cold Trial Bold';letter-spacing:2.09285426px;fill:#6d6e72;fill-opacity:1;stroke-width:0.25235766px"
         id="path4600"
         inkscape:connector-curvature="0" />
      <path
         d="m 146.00123,42.097031 h -2.55512 v 4.196434 h -2.20912 V 34.22761 h 5.20784 q 0.91381,0 1.6768,0.283902 0.77186,0.283903 1.33079,0.807348 0.55893,0.514573 0.86945,1.242073 0.31052,0.7275 0.31052,1.605824 0,0.656524 -0.16857,1.233201 -0.16856,0.567805 -0.48795,1.029146 -0.31052,0.461342 -0.76299,0.807348 -0.4436,0.346006 -0.99366,0.558933 l 2.6882,4.49808 h -2.53738 z m 0.37262,-1.907469 q 0.43473,0 0.80735,-0.141952 0.37262,-0.150823 0.64765,-0.408109 0.27503,-0.266159 0.43473,-0.638781 0.15969,-0.372622 0.15969,-0.825091 0,-0.45247 -0.15969,-0.825092 -0.1597,-0.372622 -0.43473,-0.638781 -0.27503,-0.27503 -0.65652,-0.425853 -0.3815,-0.150823 -0.81622,-0.150823 h -2.91 v 4.054482 z"
         style="font-style:normal;font-variant:normal;font-weight:bold;font-stretch:normal;font-size:18.16975784px;font-family:'Codec Cold Trial';-inkscape-font-specification:'Codec Cold Trial Bold';letter-spacing:2.09285426px;fill:#6d6e72;fill-opacity:1;stroke-width:0.25235766px"
         id="path4602"
         inkscape:connector-curvature="0" />
      <path
         d="m 154.8279,34.22761 h 2.20911 v 12.065855 h -2.20911 z"
         style="font-style:normal;font-variant:normal;font-weight:bold;font-stretch:normal;font-size:18.16975784px;font-family:'Codec Cold Trial';-inkscape-font-specification:'Codec Cold Trial Bold';letter-spacing:2.09285426px;fill:#6d6e72;fill-opacity:1;stroke-width:0.25235766px"
         id="path4604"
         inkscape:connector-curvature="0" />
      <path
         d="m 163.4239,42.664836 q 0,0.416982 0.19518,0.780732 0.19518,0.36375 0.55006,0.638781 0.35488,0.266158 0.85171,0.425853 0.49683,0.150823 1.10012,0.150823 1.43726,0 2.11153,-0.452469 0.67426,-0.461342 0.67426,-1.304177 0,-0.514573 -0.23067,-0.833964 -0.23067,-0.328262 -0.65652,-0.550061 -0.41698,-0.221798 -1.00253,-0.372622 -0.58555,-0.150823 -1.28643,-0.310518 -0.3815,-0.07985 -0.83397,-0.168567 -0.4436,-0.09759 -0.90494,-0.248415 -0.45247,-0.150823 -0.87832,-0.36375 -0.42585,-0.221798 -0.75412,-0.541189 -0.31939,-0.328262 -0.52344,-0.762988 -0.19518,-0.443597 -0.19518,-1.04689 0,-0.825091 0.26615,-1.517104 0.26616,-0.692012 0.84284,-1.188841 0.57668,-0.49683 1.48162,-0.77186 0.90494,-0.283903 2.1825,-0.283903 1.02027,0 1.80987,0.266159 0.79848,0.257287 1.34854,0.736372 0.55006,0.479085 0.83396,1.153354 0.29278,0.665396 0.29278,1.481616 h -2.21799 q 0,-0.36375 -0.14195,-0.674269 -0.14195,-0.310518 -0.42585,-0.541189 -0.27503,-0.23067 -0.70089,-0.36375 -0.42585,-0.133079 -0.99366,-0.133079 -0.70088,0 -1.16222,0.141951 -0.45247,0.141951 -0.7275,0.372622 -0.26616,0.221799 -0.37262,0.514573 -0.10647,0.292775 -0.10647,0.594421 0,0.399238 0.2218,0.683141 0.2218,0.27503 0.61217,0.470213 0.39036,0.186311 0.92268,0.310518 0.54119,0.124208 1.17997,0.212927 0.86058,0.186311 1.65018,0.434726 0.7896,0.239543 1.38403,0.656524 0.60329,0.40811 0.95817,1.046891 0.36375,0.629908 0.36375,1.596951 0,0.878323 -0.37263,1.561464 -0.36375,0.68314 -1.02914,1.153353 -0.6654,0.461342 -1.59695,0.700885 -0.93156,0.248414 -2.06717,0.248414 -1.25094,0 -2.17363,-0.346006 -0.91381,-0.346006 -1.5171,-0.896067 -0.59442,-0.558933 -0.8872,-1.250945 -0.2839,-0.700885 -0.2839,-1.410641 z"
         style="font-style:normal;font-variant:normal;font-weight:bold;font-stretch:normal;font-size:18.16975784px;font-family:'Codec Cold Trial';-inkscape-font-specification:'Codec Cold Trial Bold';letter-spacing:2.09285426px;fill:#6d6e72;fill-opacity:1;stroke-width:0.25235766px"
         id="path4606"
         inkscape:connector-curvature="0" />
      <path
         d="m 175.44447,34.22761 h 8.26866 v 1.916341 h -6.05955 v 3.229391 h 5.23445 v 1.898598 h -5.23445 v 3.114055 h 6.13939 v 1.90747 h -8.3485 z"
         style="font-style:normal;font-variant:normal;font-weight:bold;font-stretch:normal;font-size:18.16975784px;font-family:'Codec Cold Trial';-inkscape-font-specification:'Codec Cold Trial Bold';letter-spacing:2.09285426px;fill:#6d6e72;fill-opacity:1;stroke-width:0.25235766px"
         id="path4608"
         inkscape:connector-curvature="0" />
      <path
         d="m 189.50558,42.664836 q 0,0.416982 0.19518,0.780732 0.19518,0.36375 0.55006,0.638781 0.35488,0.266158 0.85171,0.425853 0.49683,0.150823 1.10012,0.150823 1.43726,0 2.11153,-0.452469 0.67426,-0.461342 0.67426,-1.304177 0,-0.514573 -0.23067,-0.833964 -0.23067,-0.328262 -0.65652,-0.550061 -0.41698,-0.221798 -1.00253,-0.372622 -0.58555,-0.150823 -1.28643,-0.310518 -0.3815,-0.07985 -0.83397,-0.168567 -0.4436,-0.09759 -0.90494,-0.248415 -0.45247,-0.150823 -0.87832,-0.36375 -0.42585,-0.221798 -0.75412,-0.541189 -0.31939,-0.328262 -0.52344,-0.762988 -0.19518,-0.443597 -0.19518,-1.04689 0,-0.825091 0.26615,-1.517104 0.26616,-0.692012 0.84284,-1.188841 0.57668,-0.49683 1.48162,-0.77186 0.90494,-0.283903 2.1825,-0.283903 1.02027,0 1.80987,0.266159 0.79848,0.257287 1.34854,0.736372 0.55006,0.479085 0.83396,1.153354 0.29278,0.665396 0.29278,1.481616 h -2.21799 q 0,-0.36375 -0.14195,-0.674269 -0.14195,-0.310518 -0.42585,-0.541189 -0.27503,-0.23067 -0.70089,-0.36375 -0.42585,-0.133079 -0.99366,-0.133079 -0.70088,0 -1.16222,0.141951 -0.45247,0.141951 -0.7275,0.372622 -0.26616,0.221799 -0.37262,0.514573 -0.10647,0.292775 -0.10647,0.594421 0,0.399238 0.2218,0.683141 0.2218,0.27503 0.61217,0.470213 0.39036,0.186311 0.92268,0.310518 0.54119,0.124208 1.17997,0.212927 0.86058,0.186311 1.65018,0.434726 0.78961,0.239543 1.38403,0.656524 0.60329,0.40811 0.95817,1.046891 0.36375,0.629908 0.36375,1.596951 0,0.878323 -0.37263,1.561464 -0.36375,0.68314 -1.02914,1.153353 -0.6654,0.461342 -1.59695,0.700885 -0.93156,0.248414 -2.06717,0.248414 -1.25094,0 -2.17363,-0.346006 -0.91381,-0.346006 -1.5171,-0.896067 -0.59442,-0.558933 -0.8872,-1.250945 -0.2839,-0.700885 -0.2839,-1.410641 z"
         style="font-style:normal;font-variant:normal;font-weight:bold;font-stretch:normal;font-size:18.16975784px;font-family:'Codec Cold Trial';-inkscape-font-specification:'Codec Cold Trial Bold';letter-spacing:2.09285426px;fill:#6d6e72;fill-opacity:1;stroke-width:0.25235766px"
         id="path4610"
         inkscape:connector-curvature="0" />
    </g>
    <path
       inkscape:connector-curvature="0"
       id="path158-2"
       style="font-style:normal;font-variant:normal;font-weight:normal;font-stretch:normal;font-size:26.78102875px;line-height:125%;font-family:'Publica Sans';-inkscape-font-specification:'Publica Sans';letter-spacing:0px;word-spacing:0px;fill:#404040;fill-opacity:1;stroke:none;stroke-width:0.13323702px;stroke-linecap:butt;stroke-linejoin:miter;stroke-opacity:1"
       d="m 73.660248,27.504909 c -0.869772,0 -1.826001,0.383722 -2.235308,1.061632 l -0.252726,-0.946515 h -0.799197 v 6.29305 h 1.304658 v -3.431005 c 0,-1.01047 0.626755,-1.928321 1.598846,-1.928321 0.946512,0 1.560475,0.66512 1.560475,1.675589 v 3.683737 h 1.317449 v -3.862808 c 0,-1.522099 -1.04885,-2.545359 -2.494197,-2.545359 z"
       sodipodi:nodetypes="scccccsssccss" />
    <path
       inkscape:connector-curvature="0"
       id="path154"
       style="font-style:normal;font-variant:normal;font-weight:normal;font-stretch:normal;font-size:26.78102875px;line-height:125%;font-family:'Publica Sans';-inkscape-font-specification:'Publica Sans';letter-spacing:0px;word-spacing:0px;fill:#404040;fill-opacity:1;stroke:none;stroke-width:0.13323702px;stroke-linecap:butt;stroke-linejoin:miter;stroke-opacity:1"
       d="m 38.977834,31.630161 c -0.289854,0.747611 -0.996455,1.259654 -1.860606,1.259654 -1.176751,0 -2.02094,-0.882562 -2.02094,-2.123265 0,-1.227913 0.844189,-2.123265 2.02094,-2.123265 0.830536,0 1.530358,0.494846 1.828246,1.205339 0.465561,0.0063 0.639142,-0.008 1.377323,0.009 -0.345795,-1.379602 -1.629714,-2.35273 -3.205569,-2.35273 -1.944196,0 -3.363968,1.368611 -3.363968,3.261643 0,1.893031 1.419772,3.261642 3.363968,3.261642 1.593023,0 2.887711,-0.983394 3.216534,-2.395618 -0.820912,-0.0015 -0.99075,-0.0098 -1.355928,-0.0023 z"
       sodipodi:nodetypes="csssccssscc" />
    <path
       inkscape:connector-curvature="0"
       id="path156"
       style="font-style:normal;font-variant:normal;font-weight:normal;font-stretch:normal;font-size:26.78102875px;line-height:125%;font-family:'Publica Sans';-inkscape-font-specification:'Publica Sans';letter-spacing:0px;word-spacing:0px;fill:#404040;fill-opacity:1;stroke:none;stroke-width:0.13323702px;stroke-linecap:butt;stroke-linejoin:miter;stroke-opacity:1"
       d="m 44.61181,27.504909 c -1.944195,0 -3.363969,1.36861 -3.363969,3.261641 0,1.893032 1.419774,3.261642 3.363969,3.261642 1.944194,0 3.351177,-1.36861 3.351177,-3.261642 0,-1.893031 -1.406983,-3.261641 -3.351177,-3.261641 z m -0.01279,1.138376 c 1.176749,0 2.020938,0.895352 2.020938,2.123265 0,1.240703 -0.844189,2.123265 -2.020938,2.123265 -1.163958,0 -2.008147,-0.882562 -2.008147,-2.123265 0,-1.227913 0.844189,-2.123265 2.008147,-2.123265 z" />
    <path
       inkscape:connector-curvature="0"
       id="path158"
       style="font-style:normal;font-variant:normal;font-weight:normal;font-stretch:normal;font-size:26.78102875px;line-height:125%;font-family:'Publica Sans';-inkscape-font-specification:'Publica Sans';letter-spacing:0px;word-spacing:0px;fill:#404040;fill-opacity:1;stroke:none;stroke-width:0.13323702px;stroke-linecap:butt;stroke-linejoin:miter;stroke-opacity:1"
       d="m 52.500507,27.504909 c -0.869771,0 -1.825996,0.383722 -2.2353,1.061632 l -0.252732,-0.946515 h -0.799191 v 6.29305 h 1.304656 v -3.431005 c 0,-1.01047 0.626747,-1.928321 1.598845,-1.928321 0.946516,0 1.560472,0.66512 1.560472,1.675589 v 3.683737 h 1.317449 v -3.862808 c 0,-1.522099 -1.048843,-2.545359 -2.494199,-2.545359 z"
       sodipodi:nodetypes="scccccsssccss" />
    <path
       inkscape:connector-curvature="0"
       id="path160"
       style="font-style:normal;font-variant:normal;font-weight:normal;font-stretch:normal;font-size:26.78102875px;line-height:125%;font-family:'Publica Sans';-inkscape-font-specification:'Publica Sans';letter-spacing:0px;word-spacing:0px;fill:#404040;fill-opacity:1;stroke:none;stroke-width:0.13323702px;stroke-linecap:butt;stroke-linejoin:miter;stroke-opacity:1"
       d="m 58.873699,27.504909 c -1.470937,0 -2.468618,0.754654 -2.468618,1.893031 0,1.483727 1.496516,1.765124 2.443037,1.905822 0.716284,0.127907 1.343029,0.230233 1.343029,0.882562 0,0.524421 -0.524425,0.869771 -1.253489,0.869771 -0.780243,0 -1.343028,-0.396513 -1.368617,-0.997678 h -1.27908 c 0.01276,1.163958 1.087221,1.969775 2.609317,1.969775 1.509308,0 2.583737,-0.780236 2.583737,-1.918612 0,-1.509309 -1.586055,-1.777915 -2.481408,-1.944195 -0.729073,-0.140699 -1.304658,-0.243025 -1.304658,-0.895353 0,-0.473259 0.486055,-0.805817 1.151169,-0.805817 0.729074,0 1.227909,0.383723 1.25349,0.946515 h 1.227918 c 0,-1.125586 -1.02326,-1.905821 -2.455827,-1.905821 z" />
    <path
       inkscape:connector-curvature="0"
       id="path162"
       style="font-style:normal;font-variant:normal;font-weight:normal;font-stretch:normal;font-size:26.78102875px;line-height:125%;font-family:'Publica Sans';-inkscape-font-specification:'Publica Sans';letter-spacing:0px;word-spacing:0px;fill:#404040;fill-opacity:1;stroke:none;stroke-width:0.13323702px;stroke-linecap:butt;stroke-linejoin:miter;stroke-opacity:1"
       d="m 69.14768,30.779341 c -0.01276,-1.905822 -1.406987,-3.274432 -3.351179,-3.274432 -1.944203,0 -3.36397,1.36861 -3.36397,3.261641 0,1.893032 1.419767,3.261642 3.36397,3.261642 1.466116,0 2.748591,-0.8953 3.184135,-2.174852 -0.689526,-0.0078 -0.697447,-0.0045 -1.351019,-0.0024 -0.308114,0.644334 -1.01211,1.102917 -1.820327,1.102917 -1.08722,0 -1.918612,-0.729073 -2.084891,-1.777915 H 69.1093 c 0.02562,-0.127908 0.03838,-0.268606 0.03838,-0.396513 z m -3.33839,-2.200009 c 1.03605,0 1.867453,0.652328 2.084891,1.586053 h -4.131412 c 0.230228,-0.946515 1.02326,-1.586053 2.046521,-1.586053 z"
       sodipodi:nodetypes="csssccsccccsccs" />
    <path
       inkscape:connector-curvature="0"
       id="path166"
       style="font-style:normal;font-variant:normal;font-weight:normal;font-stretch:normal;font-size:26.78102875px;line-height:125%;font-family:'Publica Sans';-inkscape-font-specification:'Publica Sans';letter-spacing:0px;word-spacing:0px;fill:#404040;fill-opacity:1;stroke:none;stroke-width:0.13323702px;stroke-linecap:butt;stroke-linejoin:miter;stroke-opacity:1"
       d="m 80.033397,27.504909 c -1.470936,0 -2.468607,0.754654 -2.468607,1.893031 0,1.483727 1.496516,1.765124 2.443027,1.905822 0.716285,0.127907 1.343039,0.230233 1.343039,0.882562 0,0.524421 -0.524426,0.869771 -1.253499,0.869771 -0.780233,0 -1.343027,-0.396513 -1.368608,-0.997678 h -1.279078 c 0.01276,1.163958 1.08721,1.969775 2.609316,1.969775 1.509307,0 2.583727,-0.780236 2.583727,-1.918612 0,-1.509309 -1.586046,-1.777915 -2.481408,-1.944195 -0.729073,-0.140699 -1.304648,-0.243025 -1.304648,-0.895353 0,-0.473259 0.486046,-0.805817 1.151159,-0.805817 0.729074,0 1.227919,0.383723 1.253499,0.946515 h 1.227909 c 0,-1.125586 -1.023261,-1.905821 -2.455828,-1.905821 z" />
    <path
       inkscape:connector-curvature="0"
       id="path168"
       style="font-style:normal;font-variant:normal;font-weight:normal;font-stretch:normal;font-size:26.78102875px;line-height:125%;font-family:'Publica Sans';-inkscape-font-specification:'Publica Sans';letter-spacing:0px;word-spacing:0px;fill:#404040;fill-opacity:1;stroke:none;stroke-width:0.13323702px;stroke-linecap:butt;stroke-linejoin:miter;stroke-opacity:1"
       d="m 89.642255,27.620026 h -1.304649 v 3.696527 c 0,0.984888 -0.626753,1.624425 -1.573265,1.624425 -0.946512,0 -1.560477,-0.639537 -1.560477,-1.624425 v -3.696527 h -1.304658 v 3.696527 c 0,1.611635 1.16396,2.711639 2.877925,2.711639 1.701165,0 2.865124,-1.100004 2.865124,-2.711639 z" />
    <path
       inkscape:connector-curvature="0"
       id="path170"
       style="font-style:normal;font-variant:normal;font-weight:normal;font-stretch:normal;font-size:26.78102875px;line-height:125%;font-family:'Publica Sans';-inkscape-font-specification:'Publica Sans';letter-spacing:0px;word-spacing:0px;fill:#404040;fill-opacity:1;stroke:none;stroke-width:0.13323702px;stroke-linecap:butt;stroke-linejoin:miter;stroke-opacity:1"
       d="m 93.523652,27.504909 c -1.470937,0 -2.468618,0.754654 -2.468618,1.893031 0,1.483727 1.496516,1.765124 2.443038,1.905822 0.716281,0.127907 1.343025,0.230233 1.343025,0.882562 0,0.524421 -0.524424,0.869771 -1.253496,0.869771 -0.780234,0 -1.343028,-0.396513 -1.368608,-0.997678 h -1.279079 c 0.01276,1.163958 1.087221,1.969775 2.609317,1.969775 1.509305,0 2.583735,-0.780236 2.583735,-1.918612 0,-1.509309 -1.586056,-1.777915 -2.481408,-1.944195 -0.729071,-0.140699 -1.304656,-0.243025 -1.304656,-0.895353 0,-0.473259 0.486046,-0.805817 1.15117,-0.805817 0.729071,0 1.227906,0.383723 1.253487,0.946515 h 1.227909 c 0,-1.125586 -1.023251,-1.905821 -2.455816,-1.905821 z" />
    <g
       transform="matrix(0.01169053,0,0,0.01169053,11.712932,22.846012)"
       id="Layer_1-2"
       data-name="Layer_1"
       style="fill:#7f7f7f;fill-opacity:1">
      <path
         inkscape:connector-curvature="0"
         class="cls-1"
         d="m 1417.33,1070.88 c 134.6,0 251.3,76.8 308.65,189 h 203.2 c -67.26,-218.82 -271,-377.94 -511.85,-377.94 -295.65,0 -535.41,239.76 -535.41,535.41 0,295.65 239.76,535.41 535.41,535.41 146.22,0 278.74,-58.67 375.37,-153.71 l 220.89,224.62 a 851.81,851.81 0 0 1 -316.9,196.84 c -443.5,154.26 -928.26,-80.3 -1082.52,-523.8 -154.26,-443.5 80.3,-928.29 523.83,-1082.55 443.53,-154.26 928.26,80.3 1082.52,523.8 a 850.77,850.77 0 0 1 32.4,437.3 l -1.48,-0.28 -525.68,0.29 c -57.44,111.91 -174,188.5 -308.41,188.5 -191.3,0 -346.44,-155.14 -346.44,-346.44 0,-191.3 155.14,-346.44 346.44,-346.44 v 0 z"
         transform="translate(-566.75,-566.75)"
         id="path128"
         style="fill:#7f7f7f;fill-opacity:1" />
    </g>
    <text
       xml:space="preserve"
       style="font-style:normal;font-variant:normal;font-weight:normal;font-stretch:normal;font-size:5.05465317px;line-height:125%;font-family:Campton;-inkscape-font-specification:Campton;letter-spacing:0px;word-spacing:0px;fill:#000000;fill-opacity:1;stroke:none;stroke-width:0.12636632px;stroke-linecap:butt;stroke-linejoin:miter;stroke-opacity:1"
       x="33.068951"
       y="22.262262"
       id="text4615"><tspan
         sodipodi:role="line"
         id="tspan4613"
         x="33.068951"
         y="26.820038"
         style="stroke-width:0.12636632px" /></text>
  </g>
</svg>
